<svg xmlns="http://www.w3.org/2000/svg" version="1.1" xmlns:xlink="http://www.w3.org/1999/xlink" xmlns:svgjs="http://svgjs.dev/svgjs" width="2000" height="1247" viewBox="0 0 2000 1247"><g transform="matrix(1,0,0,1,-1.2121212121212466,0.504858299595071)"><svg viewBox="0 0 396 247" data-background-color="#000000" preserveAspectRatio="xMidYMid meet" height="1247" width="2000" xmlns="http://www.w3.org/2000/svg" xmlns:xlink="http://www.w3.org/1999/xlink"><g id="tight-bounds" transform="matrix(1,0,0,1,0.2400000000000091,-0.09999999999999432)"><svg viewBox="0 0 395.52 247.2" height="247.2" width="395.52"><g><svg></svg></g><g><svg viewBox="0 0 395.52 247.2" height="247.2" width="395.52"><mask id="96844b45-9d58-4fa1-9753-df8d9e5daabb"><rect width="395.52" height="247.2" fill="white"></rect><g transform="matrix(1,0,0,1,0,56.670560100168245)" id="clone"><svg viewBox="0 0 395.52 133.8588797996635" height="133.8588797996635" width="395.52"><g><svg viewBox="0 0 395.52 133.8588797996635" height="133.8588797996635" width="395.52"><g><svg viewBox="0 0 395.52 133.8588797996635" height="133.8588797996635" width="395.52"><g><svg viewBox="0 0 395.52 133.8588797996635" height="133.8588797996635" width="395.52"><g id="SvgjsG1015"><svg viewBox="0 0 395.52 133.8588797996635" height="133.8588797996635" width="395.52" id="SvgjsSvg1014"><g><svg viewBox="0 0 395.52 80.2533571246495" height="80.2533571246495" width="395.52"><g transform="matrix(1,0,0,1,0,0)"><svg width="395.52" viewBox="-2 -36.9 197.13 40.8" height="80.2533571246495" data-palette-color="#ffffff"><path d="M18.3 0.9L18.3 0.9Q13.45 0.9 9.53-1.07 5.6-3.05 3.3-6.95 1-10.85 1-16.5L1-16.5Q1-20.8 2.4-24.05 3.8-27.3 6.23-29.5 8.65-31.7 11.83-32.8 15-33.9 18.55-33.9L18.55-33.9Q21.4-33.9 23.8-33.25 26.2-32.6 28.3-31.45L28.3-31.45 28.5-25.3 28-25.3 25.5-29.3Q25-30.25 24.4-31.03 23.8-31.8 22.9-32.2L22.9-32.2Q22.15-32.55 21.43-32.73 20.7-32.9 19.6-32.9L19.6-32.9Q16.7-32.9 14.33-31.35 11.95-29.8 10.53-26.23 9.1-22.65 9.1-16.45L9.1-16.45Q9.1-10.3 10.45-6.73 11.8-3.15 14.13-1.63 16.45-0.1 19.35-0.1L19.35-0.1Q20.95-0.1 21.9-0.33 22.85-0.55 23.8-1L23.8-1Q24.75-1.4 25.25-2.18 25.75-2.95 26.15-3.85L26.15-3.85 28.35-8.75 28.85-8.75 28.7-1.6Q26.6-0.5 24 0.2 21.4 0.9 18.3 0.9ZM38.45 0.75L38.45 0.75Q35.55 0.75 33.57-0.9 31.6-2.55 31.6-5.65L31.6-5.65Q31.6-8 34-9.98 36.4-11.95 41.55-12.95L41.55-12.95Q42.35-13.1 43.35-13.28 44.35-13.45 45.45-13.65L45.45-13.65 45.45-17.6Q45.45-21 44.62-22.38 43.8-23.75 42.05-23.75L42.05-23.75Q40.85-23.75 40.15-22.98 39.45-22.2 39.25-20.3L39.25-20.3 39.15-19.75Q39.05-17.6 38.1-16.6 37.15-15.6 35.75-15.6L35.75-15.6Q34.45-15.6 33.6-16.4 32.75-17.2 32.75-18.55L32.75-18.55Q32.75-20.6 34.17-22 35.6-23.4 37.95-24.1 40.3-24.8 43.05-24.8L43.05-24.8Q47.5-24.8 49.92-22.63 52.35-20.45 52.35-15.55L52.35-15.55 52.35-4.5Q52.35-2.25 54.45-2.25L54.45-2.25 55.55-2.25 56-1.85Q55.05-0.65 53.92 0 52.8 0.65 50.75 0.65L50.75 0.65Q48.55 0.65 47.27-0.38 46-1.4 45.6-3.1L45.6-3.1Q44.1-1.5 42.52-0.38 40.95 0.75 38.45 0.75ZM41.5-2.3L41.5-2.3Q42.5-2.3 43.37-2.78 44.25-3.25 45.45-4.25L45.45-4.25 45.45-12.65Q44.95-12.55 44.45-12.45 43.95-12.35 43.3-12.25L43.3-12.25Q41-11.65 39.62-10.23 38.25-8.8 38.25-6.4L38.25-6.4Q38.25-4.35 39.2-3.33 40.15-2.3 41.5-2.3ZM70 0L57.05 0 57.05-0.5 57.8-0.7Q58.8-1 59.17-1.6 59.55-2.2 59.55-3.15L59.55-3.15 59.55-18.8Q59.55-19.9 59.17-20.43 58.8-20.95 57.8-21.15L57.8-21.15 57.05-21.35 57.05-21.85 65.65-24.75 66.15-24.25 66.59-19.95 66.59-19.55Q67.3-20.95 68.42-22.13 69.55-23.3 70.92-24.05 72.3-24.8 73.65-24.8L73.65-24.8Q75.55-24.8 76.55-23.75 77.55-22.7 77.55-21.1L77.55-21.1Q77.55-19.4 76.57-18.48 75.59-17.55 74.25-17.55L74.25-17.55Q72.15-17.55 70.55-19.65L70.55-19.65 70.45-19.75Q69.95-20.45 69.3-20.53 68.65-20.6 68.09-19.9L68.09-19.9Q67.59-19.45 67.27-18.82 66.95-18.2 66.65-17.4L66.65-17.4 66.65-3.45Q66.65-1.45 68.4-0.95L68.4-0.95 70-0.5 70 0ZM102.89 0L90.09 0 90.09-0.5 91.14-0.85Q92.14-1.2 92.44-1.78 92.74-2.35 92.74-3.4L92.74-3.4 92.74-29.55Q92.74-30.55 92.47-31.13 92.19-31.7 91.24-32.05L91.24-32.05 90.09-32.5 90.09-33 104.39-33Q110.29-33 113.44-30.78 116.59-28.55 116.59-24.6L116.59-24.6Q116.59-22.4 114.94-20.2 113.29-18 109.74-16.8L109.74-16.8 116.69-3Q117.14-2.15 117.72-1.63 118.29-1.1 119.24-0.7L119.24-0.7 119.89-0.45 119.89 0 110.94 0 103.54-15.75 100.14-15.75 100.14-3.4Q100.14-2.45 100.44-1.85 100.74-1.25 101.69-0.95L101.69-0.95 102.89-0.5 102.89 0ZM100.14-32L100.14-16.75 102.54-16.75Q106.14-16.75 107.74-18.68 109.34-20.6 109.34-24.4L109.34-24.4Q109.34-28.25 107.84-30.13 106.34-32 102.79-32L102.79-32 100.14-32ZM133.94-24.8L133.94-24.8Q137.19-24.8 139.49-23.48 141.79-22.15 143.01-19.88 144.24-17.6 144.24-14.7L144.24-14.7Q144.24-14.15 144.19-13.58 144.14-13 143.99-12.55L143.99-12.55 129.09-12.55Q129.14-7.15 131.01-4.78 132.89-2.4 136.59-2.4L136.59-2.4Q139.09-2.4 140.64-3.2 142.19-4 143.54-5.55L143.54-5.55 144.04-5.1Q142.49-2.35 139.91-0.8 137.34 0.75 133.74 0.75L133.74 0.75Q130.19 0.75 127.44-0.78 124.69-2.3 123.14-5.15 121.59-8 121.59-11.95L121.59-11.95Q121.59-16.05 123.39-18.93 125.19-21.8 128.01-23.3 130.84-24.8 133.94-24.8ZM133.79-23.8L133.79-23.8Q132.34-23.8 131.31-22.93 130.29-22.05 129.71-19.83 129.14-17.6 129.09-13.55L129.09-13.55 137.64-13.55Q138.14-19 137.24-21.4 136.34-23.8 133.79-23.8ZM158.49 0L146.74 0 146.74-0.5 147.44-0.7Q149.19-1.2 149.19-3.15L149.19-3.15 149.19-18.8Q149.19-19.9 148.84-20.43 148.49-20.95 147.49-21.15L147.49-21.15 146.74-21.35 146.74-21.85 155.29-24.75 155.79-24.25 156.19-21.25Q157.94-22.8 160.14-23.8 162.34-24.8 164.49-24.8L164.49-24.8Q167.79-24.8 169.56-23 171.34-21.2 171.34-17.5L171.34-17.5 171.34-3.1Q171.34-1.15 173.24-0.65L173.24-0.65 173.69-0.5 173.69 0 161.89 0 161.89-0.5 162.54-0.7Q164.29-1.25 164.29-3.15L164.29-3.15 164.29-19.1Q164.29-22.3 161.09-22.3L161.09-22.3Q158.89-22.3 156.29-20.1L156.29-20.1 156.29-3.1Q156.29-1.15 158.04-0.65L158.04-0.65 158.49-0.5 158.49 0ZM185.13 0.75L185.13 0.75Q181.93 0.75 180.16-0.85 178.38-2.45 178.38-5.95L178.38-5.95 178.38-23.05 174.93-23.05 174.93-23.55 176.13-23.75Q177.68-24.1 178.81-24.75 179.93-25.4 181.03-26.5L181.03-26.5 185.13-31.05 185.63-31.05 185.48-24.05 191.08-24.05 191.08-23.05 185.43-23.05 185.43-5.05Q185.43-3.3 186.21-2.4 186.98-1.5 188.18-1.5L188.18-1.5Q189.23-1.5 190.03-2.02 190.83-2.55 191.63-3.45L191.63-3.45 192.13-2.95Q191.13-1.25 189.38-0.25 187.63 0.75 185.13 0.75Z" opacity="1" transform="matrix(1,0,0,1,0,0)" fill="black" class="wordmark-text-0" id="SvgjsPath1013" stroke-width="5" stroke="black" stroke-linejoin="round"></path></svg></g></svg></g><g transform="matrix(1,0,0,1,2.5,90.49303056183533)"><svg viewBox="0 0 390.52 43.365849237828186" height="43.365849237828186" width="390.52"><g transform="matrix(1,0,0,1,0,0)"><svg width="390.52" viewBox="-2.05 -45.19 448.35 49.949999999999996" height="43.365849237828186" data-palette-color="#ffffff"><path d="M18.6-24.61L18.6-24.61 15.65-24.61Q13.77-24.61 12.94-25.57 12.11-26.54 12.11-28.13L12.11-28.13Q12.11-31.64 17.36-31.64L17.36-31.64Q22.29-31.64 24.78-30.18L24.78-30.18 23.36-29.1Q21.66-29.88 17.36-29.88L17.36-29.88Q15.26-29.88 14.54-29.42 13.82-28.96 13.82-28.13 13.82-27.29 14.21-26.83 14.6-26.37 15.65-26.37L15.65-26.37 18.68-26.37Q21.97-26.37 24.62-25.24 27.27-24.12 28.98-22.18 30.69-20.24 31.59-17.71 32.5-15.19 32.5-12.3L32.5-12.3Q32.5-9.96 31.84-7.86 31.18-5.76 29.85-4 28.52-2.25 26.65-0.96 24.78 0.32 22.2 1.04 19.63 1.76 16.63 1.76L16.63 1.76Q11.91 1.76 7.8 0.33 3.69-1.1 0.95-3.66L0.95-3.66 2.37-4.71Q4.86-2.47 8.61-1.23 12.35 0 16.63 0L16.63 0Q19.97 0 22.67-0.96 25.37-1.93 27.11-3.61 28.86-5.3 29.8-7.52 30.74-9.74 30.74-12.3L30.74-12.3Q30.74-15.7 29.37-18.44 28-21.19 25.21-22.9 22.41-24.61 18.6-24.61ZM15.65-22.85L15.65-22.85 18.43-22.85Q23.39-22.85 26.18-19.82 28.98-16.8 28.98-12.3L28.98-12.3Q28.98-7.74 25.73-4.75 22.49-1.76 16.63-1.76L16.63-1.76Q12.72-1.76 9.33-2.83 5.93-3.91 3.69-5.86L3.69-5.86 5.05-6.96Q7.06-5.32 10.1-4.42 13.13-3.52 16.63-3.52L16.63-3.52Q21.78-3.52 24.5-5.98 27.22-8.45 27.22-12.3L27.22-12.3Q27.22-16.11 24.94-18.6 22.66-21.09 18.41-21.09L18.41-21.09 15.65-21.09Q12.08-21.09 10.3-23.05 8.52-25 8.52-28.13 8.52-31.25 10.73-33.2 12.94-35.16 17.36-35.16L17.36-35.16Q20.46-35.16 23.12-34.44 25.78-33.72 27.51-32.37L27.51-32.37 26.12-31.3Q23.07-33.4 17.36-33.4L17.36-33.4Q13.67-33.4 11.98-31.95 10.28-30.49 10.28-28.13L10.28-28.13Q10.28-25.73 11.54-24.29 12.79-22.85 15.65-22.85ZM15.65-19.34L15.65-19.34 18.33-19.34Q21.9-19.34 23.68-17.36 25.46-15.38 25.46-12.3L25.46-12.3Q25.46-9.18 23.25-7.23 21.04-5.27 16.63-5.27L16.63-5.27Q13.53-5.27 10.85-5.99 8.18-6.71 6.45-8.06L6.45-8.06 7.84-9.13Q10.89-7.03 16.63-7.03L16.63-7.03Q20.31-7.03 22.01-8.48 23.71-9.94 23.71-12.3 23.71-14.67 22.44-16.13 21.17-17.58 18.31-17.58L18.31-17.58 15.65-17.58Q10.64-17.58 7.82-20.57 5-23.56 5-28.13 5-32.69 8.25-35.68 11.5-38.67 17.36-38.67L17.36-38.67Q21.26-38.67 24.65-37.6 28.03-36.52 30.27-34.57L30.27-34.57 28.91-33.47Q26.9-35.11 23.88-36.01 20.85-36.91 17.36-36.91L17.36-36.91Q12.21-36.91 9.48-34.45 6.76-31.98 6.76-28.13L6.76-28.13Q6.76-24.29 9.06-21.81 11.35-19.34 15.65-19.34ZM15.65-15.82L15.65-15.82 18.33-15.82Q20.21-15.82 21.04-14.84 21.88-13.87 21.88-12.3L21.88-12.3Q21.88-8.79 16.63-8.79L16.63-8.79Q11.67-8.79 9.18-10.25L9.18-10.25 10.6-11.33Q12.3-10.55 16.63-10.55L16.63-10.55Q18.73-10.55 19.45-11.01 20.17-11.47 20.17-12.3L20.17-12.3Q20.17-13.11 19.76-13.59 19.36-14.06 18.29-14.06L18.29-14.06 15.65-14.06Q12.28-14.06 9.56-15.16 6.84-16.26 5.09-18.19 3.34-20.12 2.42-22.66 1.49-25.2 1.49-28.13L1.49-28.13Q1.49-30.47 2.15-32.57 2.81-34.67 4.14-36.43 5.47-38.18 7.34-39.47 9.2-40.75 11.78-41.47 14.36-42.19 17.36-42.19L17.36-42.19Q22.07-42.19 26.17-40.76 30.27-39.33 33.01-36.77L33.01-36.77 31.59-35.72Q29.1-37.96 25.37-39.2 21.63-40.43 17.36-40.43L17.36-40.43Q14.01-40.43 11.32-39.47 8.62-38.5 6.87-36.82 5.13-35.13 4.19-32.91 3.25-30.69 3.25-28.13L3.25-28.13Q3.25-24.68 4.64-21.92 6.03-19.17 8.89-17.49 11.74-15.82 15.65-15.82ZM115.88-14.79L115.88-16.55 123.33-16.55Q125.52-16.55 127.06-17.87 128.6-19.19 128.6-21.58L128.6-21.58Q128.6-23.44 126.99-24.9 125.38-26.37 123.33-26.37L123.33-26.37 111.02-26.37 111.02 0 109.26 0 109.26-28.13 123.33-28.13Q126.13-28.13 128.24-26.15 130.36-24.17 130.36-21.58L130.36-21.58Q130.36-18.48 128.31-16.64 126.26-14.79 123.33-14.79L123.33-14.79 115.88-14.79ZM115.88-11.28L115.88-13.04 123.33-13.04Q126.94-13.04 129.53-15.43 132.11-17.82 132.11-21.58L132.11-21.58Q132.11-24.88 129.48-27.38 126.84-29.88 123.33-29.88L123.33-29.88 107.51-29.88 107.51 0 105.75 0 105.75-31.64 123.33-31.64Q127.57-31.64 130.72-28.63 133.87-25.61 133.87-21.58L133.87-21.58Q133.87-17.19 130.76-14.23 127.65-11.28 123.33-11.28L123.33-11.28 115.88-11.28ZM115.88-7.76L115.88-9.52 123.33-9.52Q126.62-9.52 129.44-11.08 132.26-12.65 133.95-15.43 135.63-18.21 135.63-21.58L135.63-21.58Q135.63-24.68 133.96-27.42 132.29-30.15 129.44-31.77 126.6-33.4 123.33-33.4L123.33-33.4 103.99-33.4 103.99 0 102.23 0 102.23-35.16 123.33-35.16Q126.11-35.16 128.71-34.06 131.31-32.96 133.21-31.12 135.12-29.27 136.25-26.77 137.39-24.27 137.39-21.58L137.39-21.58Q137.39-18.43 136.26-15.8 135.14-13.16 133.21-11.41 131.28-9.67 128.73-8.72 126.18-7.76 123.33-7.76L123.33-7.76 115.88-7.76ZM114.54-22.85L114.54 0 112.78 0 112.78-24.61 123.33-24.61Q124.77-24.61 125.8-23.72 126.84-22.83 126.84-21.58L126.84-21.58Q126.84-18.31 123.33-18.31L123.33-18.31 115.88-18.31 115.88-20.07 123.33-20.07Q125.08-20.07 125.08-21.58L125.08-21.58Q125.08-22.12 124.57-22.49 124.06-22.85 123.33-22.85L123.33-22.85 114.54-22.85ZM215.96-35.16L215.96 0 214.2 0 214.2-35.16 215.96-35.16ZM212.45-35.16L212.45 0 210.69 0 210.69-35.16 212.45-35.16ZM208.93-35.16L208.93 0 207.17 0 207.17-35.16 208.93-35.16ZM219.48-13.21L219.48-8.79 236.3-8.79 236.3-7.03 219.48-7.03 219.48-5.27 236.3-5.27 236.3-3.52 219.48-3.52 219.48-1.76 236.3-1.76 236.3 0 217.72 0 217.72-35.16 236.3-35.16 236.3-33.4 219.48-33.4 219.48-31.64 236.3-31.64 236.3-29.88 219.48-29.88 219.48-28.13 236.3-28.13 236.3-26.37 219.48-26.37 219.48-22 235.32-22 235.32-20.24 219.48-20.24 219.48-18.48 235.32-18.48 235.32-16.72 219.48-16.72 219.48-14.97 235.32-14.97 235.32-13.21 219.48-13.21ZM315.17-35.16L315.17 0 313.41 0 313.41-35.16 315.17-35.16ZM311.65-35.16L311.65 0 309.89 0 309.89-35.16 311.65-35.16ZM308.14-35.16L308.14 0 306.38 0 306.38-35.16 308.14-35.16ZM318.68-13.21L318.68-8.79 335.5-8.79 335.5-7.03 318.68-7.03 318.68-5.27 335.5-5.27 335.5-3.52 318.68-3.52 318.68-1.76 335.5-1.76 335.5 0 316.92 0 316.92-35.16 335.5-35.16 335.5-33.4 318.68-33.4 318.68-31.64 335.5-31.64 335.5-29.88 318.68-29.88 318.68-28.13 335.5-28.13 335.5-26.37 318.68-26.37 318.68-22 334.53-22 334.53-20.24 318.68-20.24 318.68-18.48 334.53-18.48 334.53-16.72 318.68-16.72 318.68-14.97 334.53-14.97 334.53-13.21 318.68-13.21ZM425.87-10.55L416.13-10.55 416.13-24.61Q416.13-24.61 425.87-24.61L425.87-24.61Q428.58-24.61 430.52-22.56 432.46-20.51 432.46-17.63L432.46-17.63Q432.46-14.65 430.53-12.6 428.6-10.55 425.87-10.55L425.87-10.55ZM417.89-22.85L417.89-12.3 425.87-12.3Q427.85-12.3 429.25-13.84 430.66-15.38 430.66-17.63L430.66-17.63Q430.66-19.78 429.25-21.31 427.85-22.85 425.87-22.85L425.87-22.85 417.89-22.85ZM414.37-26.37L414.37-8.79 425.87-8.79Q429.34-8.79 431.8-11.36 434.27-13.94 434.27-17.63L434.27-17.63Q434.27-21.24 431.79-23.8 429.31-26.37 425.87-26.37L425.87-26.37 414.37-26.37ZM425.87-7.03L412.61-7.03 412.61-28.13 425.87-28.13Q430.05-28.13 433.06-25.04 436.08-21.95 436.08-17.63L436.08-17.63Q436.08-13.21 433.07-10.12 430.07-7.03 425.87-7.03L425.87-7.03ZM410.86-29.88L410.86-5.27 425.87-5.27Q429.09-5.27 431.85-6.91 434.61-8.54 436.25-11.4 437.88-14.26 437.88-17.63L437.88-17.63Q437.88-20.92 436.25-23.75 434.61-26.59 431.84-28.23 429.07-29.88 425.87-29.88L425.87-29.88 410.86-29.88ZM425.87-3.52L409.1-3.52 409.1-31.64 425.87-31.64Q429.56-31.64 432.74-29.76 435.93-27.88 437.81-24.65 439.69-21.41 439.69-17.63L439.69-17.63Q439.69-13.79 437.81-10.53 435.93-7.28 432.74-5.4 429.56-3.52 425.87-3.52L425.87-3.52ZM407.34-33.4L407.34-1.76 425.87-1.76Q430.05-1.76 433.63-3.87 437.22-5.98 439.36-9.64 441.5-13.31 441.5-17.63L441.5-17.63Q441.5-21.88 439.36-25.52 437.22-29.17 433.62-31.29 430.02-33.4 425.87-33.4L425.87-33.4 407.34-33.4ZM425.87 0L425.87 0 405.58 0 405.58-35.16 425.87-35.16Q430.51-35.16 434.53-32.8 438.54-30.44 440.92-26.4 443.3-22.36 443.3-17.63L443.3-17.63Q443.3-14.04 441.9-10.77 440.49-7.5 438.14-5.14 435.78-2.78 432.56-1.39 429.34 0 425.87 0Z" opacity="1" transform="matrix(1,0,0,1,0,0)" fill="black" class="slogan-text-1" id="SvgjsPath1012" stroke-width="5" stroke="black" stroke-linejoin="round"></path></svg></g></svg></g></svg></g></svg></g></svg></g></svg></g></svg></g></mask><g mask="url(#96844b45-9d58-4fa1-9753-df8d9e5daabb)"><g><path d="M114.37 237.626v0c-21.189 0-40.346-4.303-57.471-12.91-17.169-8.65-30.778-21.495-40.827-38.533-10.048-17.038-15.072-37.899-15.072-62.583v0c0-18.786 3.058-35.278 9.174-49.477 6.116-14.199 14.483-26.104 25.099-35.715 10.573-9.611 22.805-16.82 36.698-21.625 13.849-4.806 28.528-7.209 44.038-7.209v0c12.451 0 23.919 1.42 34.404 4.26 10.485 2.84 20.315 6.772 29.49 11.796v0l1.31 40.302h-3.276l-16.383-26.213c-2.184-4.15-4.587-7.929-7.209-11.337-2.621-3.364-5.898-5.92-9.83-7.667v0c-3.277-1.529-6.488-2.687-9.633-3.474-3.189-0.743-7.187-1.114-11.992-1.114v0c-12.67 0-24.181 3.386-34.536 10.158-10.398 6.772-18.698 17.956-24.902 33.552-6.247 15.64-9.371 37.004-9.371 64.091v0c0 26.868 2.949 48.101 8.847 63.697 5.898 15.64 13.936 26.781 24.116 33.421 10.136 6.684 21.538 10.026 34.207 10.027v0c6.99 0 12.56-0.502 16.711-1.508 4.15-0.961 8.301-2.425 12.451-4.39v0c4.15-1.748 7.318-4.325 9.502-7.733 2.184-3.364 4.15-7.012 5.898-10.944v0l14.417-32.111h3.277l-0.983 46.856c-9.174 4.806-19.441 8.738-30.8 11.796-11.359 3.058-23.81 4.587-37.354 4.587zM283.115 231.728h-83.881v-3.277l6.881-2.293c4.369-1.529 7.209-3.561 8.52-6.095 1.311-2.49 1.966-6.029 1.965-10.616v0-171.366c0-4.369-0.59-7.82-1.769-10.354-1.223-2.49-3.91-4.5-8.06-6.029v0l-7.537-2.949v-3.277h93.711c25.776 0 45.545 4.849 59.307 14.548 13.762 9.742 20.643 23.242 20.642 40.499v0c0 9.611-3.604 19.223-10.812 28.834-7.209 9.611-18.567 17.038-34.077 22.281v0l45.545 90.434c1.966 3.713 4.216 6.706 6.75 8.978 2.49 2.315 5.811 4.347 9.96 6.095v0l4.26 1.638v2.949h-58.651l-48.494-103.213h-22.281v80.932c0 4.15 0.655 7.536 1.966 10.157 1.311 2.621 4.041 4.587 8.192 5.898v0l7.864 2.949zM265.094 22.025v99.937h15.728c15.728 0 27.087-4.216 34.077-12.648 6.99-8.388 10.485-20.883 10.485-37.484v0c0-16.82-3.277-29.337-9.83-37.55-6.553-8.17-17.584-12.254-33.094-12.255v0z" fill="#ffffff" fill-rule="nonzero" stroke="none" stroke-width="1" stroke-linecap="butt" stroke-linejoin="miter" stroke-miterlimit="10" stroke-dasharray="" stroke-dashoffset="0" font-family="none" font-weight="none" font-size="none" text-anchor="none" style="mix-blend-mode: normal" data-fill-palette-color="tertiary"></path></g></g><g transform="matrix(1,0,0,1,0,56.670560100168245)"><svg viewBox="0 0 395.52 133.8588797996635" height="133.8588797996635" width="395.52"><g><svg viewBox="0 0 395.52 133.8588797996635" height="133.8588797996635" width="395.52"><g><svg viewBox="0 0 395.52 133.8588797996635" height="133.8588797996635" width="395.52"><g><svg viewBox="0 0 395.52 133.8588797996635" height="133.8588797996635" width="395.52"><g id="textblocktransform"><svg viewBox="0 0 395.52 133.8588797996635" height="133.8588797996635" width="395.52" id="textblock"><g><svg viewBox="0 0 395.52 80.2533571246495" height="80.2533571246495" width="395.52"><g transform="matrix(1,0,0,1,0,0)"><svg width="395.52" viewBox="-2 -36.9 197.13 40.8" height="80.2533571246495" data-palette-color="#ffffff"><path d="M18.3 0.9L18.3 0.9Q13.45 0.9 9.53-1.07 5.6-3.05 3.3-6.95 1-10.85 1-16.5L1-16.5Q1-20.8 2.4-24.05 3.8-27.3 6.23-29.5 8.65-31.7 11.83-32.8 15-33.9 18.55-33.9L18.55-33.9Q21.4-33.9 23.8-33.25 26.2-32.6 28.3-31.45L28.3-31.45 28.5-25.3 28-25.3 25.5-29.3Q25-30.25 24.4-31.03 23.8-31.8 22.9-32.2L22.9-32.2Q22.15-32.55 21.43-32.73 20.7-32.9 19.6-32.9L19.6-32.9Q16.7-32.9 14.33-31.35 11.95-29.8 10.53-26.23 9.1-22.65 9.1-16.45L9.1-16.45Q9.1-10.3 10.45-6.73 11.8-3.15 14.13-1.63 16.45-0.1 19.35-0.1L19.35-0.1Q20.95-0.1 21.9-0.33 22.85-0.55 23.8-1L23.8-1Q24.75-1.4 25.25-2.18 25.75-2.95 26.15-3.85L26.15-3.85 28.35-8.75 28.85-8.75 28.7-1.6Q26.6-0.5 24 0.2 21.4 0.9 18.3 0.9ZM38.45 0.75L38.45 0.75Q35.55 0.75 33.57-0.9 31.6-2.55 31.6-5.65L31.6-5.65Q31.6-8 34-9.98 36.4-11.95 41.55-12.95L41.55-12.95Q42.35-13.1 43.35-13.28 44.35-13.45 45.45-13.65L45.45-13.65 45.45-17.6Q45.45-21 44.62-22.38 43.8-23.75 42.05-23.75L42.05-23.75Q40.85-23.75 40.15-22.98 39.45-22.2 39.25-20.3L39.25-20.3 39.15-19.75Q39.05-17.6 38.1-16.6 37.15-15.6 35.75-15.6L35.75-15.6Q34.45-15.6 33.6-16.4 32.75-17.2 32.75-18.55L32.75-18.55Q32.75-20.6 34.17-22 35.6-23.4 37.95-24.1 40.3-24.8 43.05-24.8L43.05-24.8Q47.5-24.8 49.92-22.63 52.35-20.45 52.35-15.55L52.35-15.55 52.35-4.5Q52.35-2.25 54.45-2.25L54.45-2.25 55.55-2.25 56-1.85Q55.05-0.65 53.92 0 52.8 0.65 50.75 0.65L50.75 0.65Q48.55 0.65 47.27-0.38 46-1.4 45.6-3.1L45.6-3.1Q44.1-1.5 42.52-0.38 40.95 0.75 38.45 0.75ZM41.5-2.3L41.5-2.3Q42.5-2.3 43.37-2.78 44.25-3.25 45.45-4.25L45.45-4.25 45.45-12.65Q44.95-12.55 44.45-12.45 43.95-12.35 43.3-12.25L43.3-12.25Q41-11.65 39.62-10.23 38.25-8.8 38.25-6.4L38.25-6.4Q38.25-4.35 39.2-3.33 40.15-2.3 41.5-2.3ZM70 0L57.05 0 57.05-0.5 57.8-0.7Q58.8-1 59.17-1.6 59.55-2.2 59.55-3.15L59.55-3.15 59.55-18.8Q59.55-19.9 59.17-20.43 58.8-20.95 57.8-21.15L57.8-21.15 57.05-21.35 57.05-21.85 65.65-24.75 66.15-24.25 66.59-19.95 66.59-19.55Q67.3-20.95 68.42-22.13 69.55-23.3 70.92-24.05 72.3-24.8 73.65-24.8L73.65-24.8Q75.55-24.8 76.55-23.75 77.55-22.7 77.55-21.1L77.55-21.1Q77.55-19.4 76.57-18.48 75.59-17.55 74.25-17.55L74.25-17.55Q72.15-17.55 70.55-19.65L70.55-19.65 70.45-19.75Q69.95-20.45 69.3-20.53 68.65-20.6 68.09-19.9L68.09-19.9Q67.59-19.45 67.27-18.82 66.95-18.2 66.65-17.4L66.65-17.4 66.65-3.45Q66.65-1.45 68.4-0.95L68.4-0.95 70-0.5 70 0ZM102.89 0L90.09 0 90.09-0.5 91.14-0.85Q92.14-1.2 92.44-1.78 92.74-2.35 92.74-3.4L92.74-3.4 92.74-29.55Q92.74-30.55 92.47-31.13 92.19-31.7 91.24-32.05L91.24-32.05 90.09-32.5 90.09-33 104.39-33Q110.29-33 113.44-30.78 116.59-28.55 116.59-24.6L116.59-24.6Q116.59-22.4 114.94-20.2 113.29-18 109.74-16.8L109.74-16.8 116.69-3Q117.14-2.15 117.72-1.63 118.29-1.1 119.24-0.7L119.24-0.7 119.89-0.45 119.89 0 110.94 0 103.54-15.75 100.14-15.75 100.14-3.4Q100.14-2.45 100.44-1.85 100.74-1.25 101.69-0.95L101.69-0.95 102.89-0.5 102.89 0ZM100.14-32L100.14-16.75 102.54-16.75Q106.14-16.75 107.74-18.68 109.34-20.6 109.34-24.4L109.34-24.4Q109.34-28.25 107.84-30.13 106.34-32 102.79-32L102.79-32 100.14-32ZM133.94-24.8L133.94-24.8Q137.19-24.8 139.49-23.48 141.79-22.15 143.01-19.88 144.24-17.6 144.24-14.7L144.24-14.7Q144.24-14.15 144.19-13.58 144.14-13 143.99-12.55L143.99-12.55 129.09-12.55Q129.14-7.15 131.01-4.78 132.89-2.4 136.59-2.4L136.59-2.4Q139.09-2.4 140.64-3.2 142.19-4 143.54-5.55L143.54-5.55 144.04-5.1Q142.49-2.35 139.91-0.8 137.34 0.75 133.74 0.75L133.74 0.75Q130.19 0.75 127.44-0.78 124.69-2.3 123.14-5.15 121.59-8 121.59-11.95L121.59-11.95Q121.59-16.05 123.39-18.93 125.19-21.8 128.01-23.3 130.84-24.8 133.94-24.8ZM133.79-23.8L133.79-23.8Q132.34-23.8 131.31-22.93 130.29-22.05 129.71-19.83 129.14-17.6 129.09-13.55L129.09-13.55 137.64-13.55Q138.14-19 137.24-21.4 136.34-23.8 133.79-23.8ZM158.49 0L146.74 0 146.74-0.5 147.44-0.7Q149.19-1.2 149.19-3.15L149.19-3.15 149.19-18.8Q149.19-19.9 148.84-20.43 148.49-20.95 147.49-21.15L147.49-21.15 146.74-21.35 146.74-21.85 155.29-24.75 155.79-24.25 156.19-21.25Q157.94-22.8 160.14-23.8 162.34-24.8 164.49-24.8L164.49-24.8Q167.79-24.8 169.56-23 171.34-21.2 171.34-17.5L171.34-17.5 171.34-3.1Q171.34-1.15 173.24-0.65L173.24-0.65 173.69-0.5 173.69 0 161.89 0 161.89-0.5 162.54-0.7Q164.29-1.25 164.29-3.15L164.29-3.15 164.29-19.1Q164.29-22.3 161.09-22.3L161.09-22.3Q158.89-22.3 156.29-20.1L156.29-20.1 156.29-3.1Q156.29-1.15 158.04-0.65L158.04-0.65 158.49-0.5 158.49 0ZM185.13 0.75L185.13 0.75Q181.93 0.75 180.16-0.85 178.38-2.45 178.38-5.95L178.38-5.95 178.38-23.05 174.93-23.05 174.93-23.55 176.13-23.75Q177.68-24.1 178.81-24.75 179.93-25.4 181.03-26.5L181.03-26.5 185.13-31.05 185.63-31.05 185.48-24.05 191.08-24.05 191.08-23.05 185.43-23.05 185.43-5.05Q185.43-3.3 186.21-2.4 186.98-1.5 188.18-1.5L188.18-1.5Q189.23-1.5 190.03-2.02 190.83-2.55 191.63-3.45L191.63-3.45 192.13-2.95Q191.13-1.25 189.38-0.25 187.63 0.75 185.13 0.75Z" opacity="1" transform="matrix(1,0,0,1,0,0)" fill="#ffffff" class="wordmark-text-0" data-fill-palette-color="primary" id="text-0"></path></svg></g></svg></g><g transform="matrix(1,0,0,1,2.5,90.49303056183533)"><svg viewBox="0 0 390.52 43.365849237828186" height="43.365849237828186" width="390.52"><g transform="matrix(1,0,0,1,0,0)"><svg width="390.52" viewBox="-2.05 -45.19 448.35 49.949999999999996" height="43.365849237828186" data-palette-color="#ffffff"><path d="M18.6-24.61L18.6-24.61 15.65-24.61Q13.77-24.61 12.94-25.57 12.11-26.54 12.11-28.13L12.11-28.13Q12.11-31.64 17.36-31.64L17.36-31.64Q22.29-31.64 24.78-30.18L24.78-30.18 23.36-29.1Q21.66-29.88 17.36-29.88L17.36-29.88Q15.26-29.88 14.54-29.42 13.82-28.96 13.82-28.13 13.82-27.29 14.21-26.83 14.6-26.37 15.65-26.37L15.65-26.37 18.68-26.37Q21.97-26.37 24.62-25.24 27.27-24.12 28.98-22.18 30.69-20.24 31.59-17.71 32.5-15.19 32.5-12.3L32.5-12.3Q32.5-9.96 31.84-7.86 31.18-5.76 29.85-4 28.52-2.25 26.65-0.96 24.78 0.32 22.2 1.04 19.63 1.76 16.63 1.76L16.63 1.76Q11.91 1.76 7.8 0.33 3.69-1.1 0.95-3.66L0.95-3.66 2.37-4.71Q4.86-2.47 8.61-1.23 12.35 0 16.63 0L16.63 0Q19.97 0 22.67-0.96 25.37-1.93 27.11-3.61 28.86-5.3 29.8-7.52 30.74-9.74 30.74-12.3L30.74-12.3Q30.74-15.7 29.37-18.44 28-21.19 25.21-22.9 22.41-24.61 18.6-24.61ZM15.65-22.85L15.65-22.85 18.43-22.85Q23.39-22.85 26.18-19.82 28.98-16.8 28.98-12.3L28.98-12.3Q28.98-7.74 25.73-4.75 22.49-1.76 16.63-1.76L16.63-1.76Q12.72-1.76 9.33-2.83 5.93-3.91 3.69-5.86L3.69-5.86 5.05-6.96Q7.06-5.32 10.1-4.42 13.13-3.52 16.63-3.52L16.63-3.52Q21.78-3.52 24.5-5.98 27.22-8.45 27.22-12.3L27.22-12.3Q27.22-16.11 24.94-18.6 22.66-21.09 18.41-21.09L18.41-21.09 15.65-21.09Q12.08-21.09 10.3-23.05 8.52-25 8.52-28.13 8.52-31.25 10.73-33.2 12.94-35.16 17.36-35.16L17.36-35.16Q20.46-35.16 23.12-34.44 25.78-33.72 27.51-32.37L27.51-32.37 26.12-31.3Q23.07-33.4 17.36-33.4L17.36-33.4Q13.67-33.4 11.98-31.95 10.28-30.49 10.28-28.13L10.28-28.13Q10.28-25.73 11.54-24.29 12.79-22.85 15.65-22.85ZM15.65-19.34L15.65-19.34 18.33-19.34Q21.9-19.34 23.68-17.36 25.46-15.38 25.46-12.3L25.46-12.3Q25.46-9.18 23.25-7.23 21.04-5.27 16.63-5.27L16.63-5.27Q13.53-5.27 10.85-5.99 8.18-6.71 6.45-8.06L6.45-8.06 7.84-9.13Q10.89-7.03 16.63-7.03L16.63-7.03Q20.31-7.03 22.01-8.48 23.71-9.94 23.71-12.3 23.71-14.67 22.44-16.13 21.17-17.58 18.31-17.58L18.31-17.58 15.65-17.58Q10.64-17.58 7.82-20.57 5-23.56 5-28.13 5-32.69 8.25-35.68 11.5-38.67 17.36-38.67L17.36-38.67Q21.26-38.67 24.65-37.6 28.03-36.52 30.27-34.57L30.27-34.57 28.91-33.47Q26.9-35.11 23.88-36.01 20.85-36.91 17.36-36.91L17.36-36.91Q12.21-36.91 9.48-34.45 6.76-31.98 6.76-28.13L6.76-28.13Q6.76-24.29 9.06-21.81 11.35-19.34 15.65-19.34ZM15.65-15.82L15.65-15.82 18.33-15.82Q20.21-15.82 21.04-14.84 21.88-13.87 21.88-12.3L21.88-12.3Q21.88-8.79 16.63-8.79L16.63-8.79Q11.67-8.79 9.18-10.25L9.18-10.25 10.6-11.33Q12.3-10.55 16.63-10.55L16.63-10.55Q18.73-10.55 19.45-11.01 20.17-11.47 20.17-12.3L20.17-12.3Q20.17-13.11 19.76-13.59 19.36-14.06 18.29-14.06L18.29-14.06 15.65-14.06Q12.28-14.06 9.56-15.16 6.84-16.26 5.09-18.19 3.34-20.12 2.42-22.66 1.49-25.2 1.49-28.13L1.49-28.13Q1.49-30.47 2.15-32.57 2.81-34.67 4.14-36.43 5.47-38.18 7.34-39.47 9.2-40.75 11.78-41.47 14.36-42.19 17.36-42.19L17.36-42.19Q22.07-42.19 26.17-40.76 30.27-39.33 33.01-36.77L33.01-36.77 31.59-35.72Q29.1-37.96 25.37-39.2 21.63-40.43 17.36-40.43L17.36-40.43Q14.01-40.43 11.32-39.47 8.62-38.5 6.87-36.82 5.13-35.13 4.19-32.91 3.25-30.69 3.25-28.13L3.25-28.13Q3.25-24.68 4.64-21.92 6.03-19.17 8.89-17.49 11.74-15.82 15.65-15.82ZM115.88-14.79L115.88-16.55 123.33-16.55Q125.52-16.55 127.06-17.87 128.6-19.19 128.6-21.58L128.6-21.58Q128.6-23.44 126.99-24.9 125.38-26.37 123.33-26.37L123.33-26.37 111.02-26.37 111.02 0 109.26 0 109.26-28.13 123.33-28.13Q126.13-28.13 128.24-26.15 130.36-24.17 130.36-21.58L130.36-21.58Q130.36-18.48 128.31-16.64 126.26-14.79 123.33-14.79L123.33-14.79 115.88-14.79ZM115.88-11.28L115.88-13.04 123.33-13.04Q126.94-13.04 129.53-15.43 132.11-17.82 132.11-21.58L132.11-21.58Q132.11-24.88 129.48-27.38 126.84-29.88 123.33-29.88L123.33-29.88 107.51-29.88 107.51 0 105.75 0 105.75-31.64 123.33-31.64Q127.57-31.64 130.72-28.63 133.87-25.61 133.87-21.58L133.87-21.58Q133.87-17.19 130.76-14.23 127.65-11.28 123.33-11.28L123.33-11.28 115.88-11.28ZM115.88-7.76L115.88-9.52 123.33-9.52Q126.62-9.52 129.44-11.08 132.26-12.65 133.95-15.43 135.63-18.21 135.63-21.58L135.63-21.58Q135.63-24.68 133.96-27.42 132.29-30.15 129.44-31.77 126.6-33.4 123.33-33.4L123.33-33.4 103.99-33.4 103.99 0 102.23 0 102.23-35.16 123.33-35.16Q126.11-35.16 128.71-34.06 131.31-32.96 133.21-31.12 135.12-29.27 136.25-26.77 137.39-24.27 137.39-21.58L137.39-21.58Q137.39-18.43 136.26-15.8 135.14-13.16 133.21-11.41 131.28-9.67 128.73-8.72 126.18-7.76 123.33-7.76L123.33-7.76 115.88-7.76ZM114.54-22.85L114.54 0 112.78 0 112.78-24.61 123.33-24.61Q124.77-24.61 125.8-23.72 126.84-22.83 126.84-21.58L126.84-21.58Q126.84-18.31 123.33-18.31L123.33-18.31 115.88-18.31 115.88-20.07 123.33-20.07Q125.08-20.07 125.08-21.58L125.08-21.58Q125.08-22.12 124.57-22.49 124.06-22.85 123.33-22.85L123.33-22.85 114.54-22.85ZM215.96-35.16L215.96 0 214.2 0 214.2-35.16 215.96-35.16ZM212.45-35.16L212.45 0 210.69 0 210.69-35.16 212.45-35.16ZM208.93-35.16L208.93 0 207.17 0 207.17-35.16 208.93-35.16ZM219.48-13.21L219.48-8.79 236.3-8.79 236.3-7.03 219.48-7.03 219.48-5.27 236.3-5.27 236.3-3.52 219.48-3.52 219.48-1.76 236.3-1.76 236.3 0 217.72 0 217.72-35.16 236.3-35.16 236.3-33.4 219.48-33.4 219.48-31.64 236.3-31.64 236.3-29.88 219.48-29.88 219.48-28.13 236.3-28.13 236.3-26.37 219.48-26.37 219.48-22 235.32-22 235.32-20.24 219.48-20.24 219.48-18.48 235.32-18.48 235.32-16.72 219.48-16.72 219.48-14.97 235.32-14.97 235.32-13.21 219.48-13.21ZM315.17-35.16L315.17 0 313.41 0 313.41-35.16 315.17-35.16ZM311.65-35.16L311.65 0 309.89 0 309.89-35.16 311.65-35.16ZM308.14-35.16L308.14 0 306.38 0 306.38-35.16 308.14-35.16ZM318.68-13.21L318.68-8.79 335.5-8.79 335.5-7.03 318.68-7.03 318.68-5.27 335.5-5.27 335.5-3.52 318.68-3.52 318.68-1.76 335.5-1.76 335.5 0 316.92 0 316.92-35.16 335.5-35.16 335.5-33.4 318.68-33.4 318.68-31.64 335.5-31.64 335.5-29.88 318.68-29.88 318.68-28.13 335.5-28.13 335.5-26.37 318.68-26.37 318.68-22 334.53-22 334.53-20.24 318.68-20.24 318.68-18.48 334.53-18.48 334.53-16.72 318.68-16.72 318.68-14.97 334.53-14.97 334.53-13.21 318.68-13.21ZM425.87-10.55L416.13-10.55 416.13-24.61Q416.13-24.61 425.87-24.61L425.87-24.61Q428.58-24.61 430.52-22.56 432.46-20.51 432.46-17.63L432.46-17.63Q432.46-14.65 430.53-12.6 428.6-10.55 425.87-10.55L425.87-10.55ZM417.89-22.85L417.89-12.3 425.87-12.3Q427.85-12.3 429.25-13.84 430.66-15.38 430.66-17.63L430.66-17.63Q430.66-19.78 429.25-21.31 427.85-22.85 425.87-22.85L425.87-22.85 417.89-22.85ZM414.37-26.37L414.37-8.79 425.87-8.79Q429.34-8.79 431.8-11.36 434.27-13.94 434.27-17.63L434.27-17.63Q434.27-21.24 431.79-23.8 429.31-26.37 425.87-26.37L425.87-26.37 414.37-26.37ZM425.87-7.03L412.61-7.03 412.61-28.13 425.87-28.13Q430.05-28.13 433.06-25.04 436.08-21.95 436.08-17.63L436.08-17.63Q436.08-13.21 433.07-10.12 430.07-7.03 425.87-7.03L425.87-7.03ZM410.86-29.88L410.86-5.27 425.87-5.27Q429.09-5.27 431.85-6.91 434.61-8.54 436.25-11.4 437.88-14.26 437.88-17.63L437.88-17.63Q437.88-20.92 436.25-23.75 434.61-26.59 431.84-28.23 429.07-29.88 425.87-29.88L425.87-29.88 410.86-29.88ZM425.87-3.52L409.1-3.52 409.1-31.64 425.87-31.64Q429.56-31.64 432.74-29.76 435.93-27.88 437.81-24.65 439.69-21.41 439.69-17.63L439.69-17.63Q439.69-13.79 437.81-10.53 435.93-7.28 432.74-5.4 429.56-3.52 425.87-3.52L425.87-3.52ZM407.34-33.4L407.34-1.76 425.87-1.76Q430.05-1.76 433.63-3.87 437.22-5.98 439.36-9.64 441.5-13.31 441.5-17.63L441.5-17.63Q441.5-21.88 439.36-25.52 437.22-29.17 433.62-31.29 430.02-33.4 425.87-33.4L425.87-33.4 407.34-33.4ZM425.87 0L425.87 0 405.58 0 405.58-35.16 425.87-35.16Q430.51-35.16 434.53-32.8 438.54-30.44 440.92-26.4 443.3-22.36 443.3-17.63L443.3-17.63Q443.3-14.04 441.9-10.77 440.49-7.5 438.14-5.14 435.78-2.78 432.56-1.39 429.34 0 425.87 0Z" opacity="1" transform="matrix(1,0,0,1,0,0)" fill="#ffffff" class="slogan-text-1" data-fill-palette-color="secondary" id="text-1"></path></svg></g></svg></g></svg></g></svg></g></svg></g></svg></g></svg></g></svg></g><defs></defs></svg><rect width="395.52" height="247.2" fill="none" stroke="none" visibility="hidden"></rect></g></svg></g></svg>